# xmcd
#
# Track frame offsets: 
#        150
#        17143
#        39735
#        70593
#        85334
#        100606
#        131381
#        152437
#        174809
#        187176
#        200823
#        212356
#        235425
#        259432
#        294541
#        315880
#
# Disc length: 4669 seconds
#
# Revision: 0
# Processed by: cddbd v1.5.2PL0 Copyright (c) Steve Scherf et al.
# Submitted via: ExactAudioCopy v0.99pb4
#
DISCID=d8123b10
DTITLE=Blues Collection 1000% - Vol. 7
DYEAR=2003
DGENRE=Blues
TTITLE0=B. B. King - Ain't Nobody Like My Baby
TTITLE1=Robin Trower - Into Dust
TTITLE2=Otis Rush - Walking The Back Street and Crying
TTITLE3=Robben Ford - I Can't Stand The Rain
TTITLE4=Tony Joe White - Mojo Dollar
TTITLE5=Snakebite - Please Don't Dog Me
TTITLE6=Koko Taylor - Buton The Other Hand
TTITLE7=John Primer - Brutal Hearted Woman
TTITLE8=J. J. Cale - Lou-Easy-Ann
TTITLE9=T-Bone Walker - That Evening Train
TTITLE10=Etta James - I'd Rather Go Blind
TTITLE11=Magic Slim - Born In Missouri
TTITLE12=Son Seals - Love Had A Breakdown
TTITLE13=Larry Carlton - The B. P. Blues
TTITLE14=Debbie Davis and Kenny Neal - Money
TTITLE15=Buddy Guy - Black Night
EXTD=
EXTT0=
EXTT1=
EXTT2=
EXTT3=
EXTT4=
EXTT5=
EXTT6=
EXTT7=
EXTT8=
EXTT9=
EXTT10=
EXTT11=
EXTT12=
EXTT13=
EXTT14=
EXTT15=
PLAYORDER=
